<svg xmlns="http://www.w3.org/2000/svg" viewBox="0 0 290.507 290.507"><path d="M249.555 104.303C249.555 46.79 202.765 0 145.253 0S40.952 46.79 40.952 104.303c0 52.419 38.872 95.923 89.301 103.219l.001 19.497h-18.487c-8.284 0-15 6.716-15 15 0 8.284 6.716 15 15 15h18.487l.001 18.489c0 8.284 6.716 15 15 15 8.284 0 15-6.716 15-15.001l-.001-18.488h18.487c8.284 0 15-6.716 15-15 0-8.284-6.716-15-15-15h-18.487l-.001-19.497c50.43-7.295 89.302-50.8 89.302-103.219zm-178.603 0C70.952 63.332 104.284 30 145.253 30s74.302 33.332 74.302 74.303c0 40.97-33.332 74.302-74.302 74.302s-74.301-33.332-74.301-74.302z"/></svg>
