<svg xmlns="http://www.w3.org/2000/svg" viewBox="0 0 240.699 240.699"><path d="M240.625 13.726c-.021-.217-.063-.428-.094-.642-.038-.27-.069-.541-.123-.809-.049-.25-.118-.493-.18-.738-.058-.228-.107-.458-.176-.684-.074-.244-.166-.478-.251-.716-.08-.223-.153-.448-.245-.668-.093-.225-.202-.441-.306-.66-.107-.224-.205-.45-.322-.669-.114-.214-.245-.417-.37-.625-.127-.212-.246-.426-.384-.633-.158-.236-.333-.459-.504-.686-.124-.164-.237-.333-.368-.493a15.123 15.123 0 0 0-2.102-2.101c-.151-.125-.313-.232-.468-.35-.234-.178-.466-.359-.712-.523-.196-.131-.4-.245-.602-.366-.219-.131-.433-.268-.658-.389-.206-.11-.418-.203-.628-.303-.233-.111-.464-.227-.703-.326-.202-.083-.409-.15-.614-.225-.256-.093-.51-.191-.771-.27-.201-.061-.405-.104-.607-.157-.271-.069-.54-.144-.816-.199-.226-.044-.453-.069-.68-.104-.256-.039-.51-.086-.771-.111a14.964 14.964 0 0 0-1.16-.059c-.104-.002-.205-.016-.311-.016H178.34c-8.284 0-15 6.716-15 15s6.716 15 15 15h11.148L166.89 52.806c-17.445-13.127-39.123-20.918-62.587-20.918C46.79 31.888 0 78.678 0 136.19c0 57.512 46.79 104.302 104.303 104.302 57.512 0 104.301-46.79 104.301-104.302 0-23.251-7.65-44.748-20.561-62.111L210.7 51.421v11.146c0 8.284 6.716 15 15 15 8.284 0 15-6.716 15-15V15.213a15.375 15.375 0 0 0-.075-1.487zM104.303 210.492C63.332 210.492 30 177.161 30 136.19c0-40.971 33.332-74.303 74.303-74.303 40.97 0 74.301 33.332 74.301 74.303s-33.331 74.302-74.301 74.302z"/></svg>
